<?xml version="1.0" standalone="no"?>
<!DOCTYPE svg PUBLIC "-//W3C//DTD SVG 20010904//EN"
 "http://www.w3.org/TR/2001/REC-SVG-20010904/DTD/svg10.dtd">
<svg version="1.0" xmlns="http://www.w3.org/2000/svg"
 width="536.000000pt" height="94.000000pt" viewBox="0 0 536.000000 94.000000"
 preserveAspectRatio="xMidYMid meet">
<metadata>
Created by potrace 1.15, written by Peter Selinger 2001-2017
</metadata>
<g transform="translate(0.000000,94.000000) scale(0.100000,-0.100000)"
fill="#000000" stroke="none">
<path d="M321 787 c-28 -14 -200 -301 -200 -335 -1 -26 160 -309 190 -334 12
-10 38 -18 59 -18 37 0 38 1 99 105 34 57 61 107 61 110 0 3 -16 5 -35 5 -26
0 -45 9 -73 34 -35 32 -37 38 -37 93 1 59 17 92 157 321 l20 32 -109 0 c-66 0
-117 -5 -132 -13z"/>
<path d="M551 694 c-34 -58 -61 -107 -61 -109 0 -1 19 -5 42 -8 63 -8 108 -60
108 -123 0 -39 -12 -67 -89 -200 l-90 -154 118 0 c78 0 123 4 133 13 29 22
188 307 188 336 0 30 -159 317 -188 339 -9 6 -35 12 -58 12 l-42 0 -61 -106z"/>
<path d="M990 450 l0 -230 80 0 80 0 0 85 0 85 120 0 120 0 0 50 0 50 -120 0
-120 0 0 45 0 45 130 0 130 0 0 50 0 50 -210 0 -210 0 0 -230z"/>
<path d="M1470 450 l0 -230 185 0 185 0 0 55 0 55 -110 0 -110 0 0 175 0 175
-75 0 -75 0 0 -230z"/>
<path d="M1890 450 l0 -230 230 0 230 0 0 50 0 50 -155 0 -155 0 0 40 0 40
140 0 140 0 0 50 0 50 -140 0 -140 0 0 40 0 40 150 0 150 0 0 50 0 50 -225 0
-225 0 0 -230z"/>
<path d="M2400 450 l0 -230 230 0 230 0 0 50 0 50 -155 0 -155 0 0 40 0 40
140 0 140 0 0 50 0 50 -140 0 -140 0 0 40 0 40 150 0 150 0 0 50 0 50 -225 0
-225 0 0 -230z"/>
<path d="M2900 630 l0 -50 80 0 80 0 0 -180 0 -180 75 0 75 0 0 180 0 180 75
0 75 0 0 50 0 50 -230 0 -230 0 0 -50z"/>
<path d="M3410 450 l0 -230 80 0 80 0 0 85 0 85 39 0 c39 0 40 -1 86 -85 l46
-85 84 0 84 0 -50 84 c-27 46 -49 88 -49 93 0 4 13 14 29 21 58 26 80 135 41
200 -34 55 -66 62 -280 62 l-190 0 0 -230z m324 114 c22 -21 20 -51 -3 -64
-11 -5 -51 -10 -90 -10 l-71 0 0 45 0 45 74 0 c54 0 79 -4 90 -16z"/>
<path d="M3960 450 l0 -230 75 0 75 0 0 230 0 230 -75 0 -75 0 0 -230z"/>
<path d="M4170 630 l0 -50 75 0 75 0 0 -180 0 -180 80 0 80 0 0 180 0 180 75
0 75 0 0 50 0 50 -230 0 -230 0 0 -50z"/>
<path d="M4680 450 l0 -230 230 0 230 0 0 50 0 50 -155 0 -155 0 0 40 0 40
140 0 140 0 0 50 0 50 -140 0 -140 0 0 40 0 40 150 0 150 0 0 50 0 50 -225 0
-225 0 0 -230z"/>
</g>
</svg>
